<svg width="78" height="85" viewBox="0 0 78 85" fill="none" xmlns="http://www.w3.org/2000/svg">
<path d="M58.9889 17.3025V80.2687C58.9889 82.3598 57.2934 84.0534 55.2042 84.0534H12.0605C9.97131 84.0534 8.27576 82.3598 8.27576 80.2687V17.3025C8.27576 15.2115 9.97131 13.5178 12.0605 13.5178H55.2042C57.2934 13.5178 58.9889 15.2115 58.9889 17.3025Z" fill="#F0EAE0"/>
<path d="M58.9889 17.3025V34.0896C51.6182 33.0053 45.9601 26.6545 45.9601 18.9848C45.9601 17.0584 46.3158 15.2153 46.9687 13.5178H55.2042C57.2934 13.5178 58.9889 15.2115 58.9889 17.3025Z" fill="white"/>
<path d="M14.5078 27.7919V33.3003C14.5078 33.8228 14.9315 34.2465 15.454 34.2465H51.8108C52.3333 34.2465 52.757 33.8228 52.757 33.3003V27.7919H14.5078Z" fill="white"/>
<path d="M51.8304 76.0556H47.5796C46.8032 76.0556 46.1715 75.4239 46.1715 74.6475V59.8979C46.1715 59.1215 46.8032 58.4898 47.5796 58.4898H51.8304C52.6068 58.4898 53.2385 59.1215 53.2385 59.8979V74.6475C53.2385 75.4239 52.6066 76.0556 51.8304 76.0556Z" fill="#C6BFAD"/>
<path d="M51.8108 32.0845H15.454C14.9315 32.0845 14.5078 31.6608 14.5078 31.1383V23.8281C14.5078 23.3057 14.9315 22.882 15.454 22.882H51.8108C52.3333 22.882 52.757 23.3057 52.757 23.8281V31.1381C52.757 31.6608 52.3333 32.0845 51.8108 32.0845Z" fill="#C6BFAD"/>
<path d="M50.1309 22.8831L40.9284 32.0856H34.4679L43.6704 22.8831H50.1309Z" fill="#F0EAE0"/>
<path d="M52.7556 23.8293V24.9798L45.6498 32.0856H43.1102L48.2177 26.9782L52.22 22.9777C52.5379 23.1291 52.7556 23.4546 52.7556 23.8293Z" fill="#F0EAE0"/>
<path d="M50.1309 22.8831L47.4494 25.5646C47.0407 24.7111 46.7095 23.8142 46.4635 22.8831H50.1309Z" fill="white"/>
<path d="M52.7555 23.8293V24.9798L49.2641 28.4712C48.8875 27.9962 48.5375 27.4967 48.2177 26.9782L52.22 22.9777C52.5379 23.1291 52.7555 23.4546 52.7555 23.8293Z" fill="white"/>
<path d="M24.179 30.5912H23.2428C22.2077 30.5912 21.3656 29.7493 21.3656 28.7142V26.4619C21.3656 25.4268 22.2077 24.5847 23.2428 24.5847H24.179C25.2141 24.5847 26.0562 25.4268 26.0562 26.4619V28.7142C26.0562 29.7493 25.2141 30.5912 24.179 30.5912ZM24.179 28.6989V29.6451V28.6989ZM23.258 28.6989H24.1638V26.4771H23.258V28.6989Z" fill="white"/>
<path d="M28.6903 30.5912C28.1679 30.5912 27.7442 30.1677 27.7442 29.6451V26.4557C27.3182 26.3635 26.9991 25.9845 26.9991 25.5309C26.9991 25.0082 27.4228 24.5847 27.9453 24.5847H28.6903C29.2128 24.5847 29.6365 25.0082 29.6365 25.5309V29.6451C29.6365 30.1677 29.213 30.5912 28.6903 30.5912Z" fill="white"/>
<path d="M61.2315 31.4872C69.6652 31.4872 76.502 24.6504 76.502 16.2167C76.502 7.78302 69.6652 0.946167 61.2315 0.946167C52.7978 0.946167 45.9609 7.78302 45.9609 16.2167C45.9609 24.6504 52.7978 31.4872 61.2315 31.4872Z" fill="#F0EAE0"/>
<path d="M58.9882 36.5173C58.4658 36.5173 58.0421 36.9408 58.0421 37.4635V80.2691C58.0421 81.8343 56.7687 83.1076 55.2035 83.1076H12.0615C10.4963 83.1076 9.22292 81.8343 9.22292 80.2691V17.3025C9.22292 15.7374 10.4963 14.464 12.0615 14.464H39.8932C40.4157 14.464 40.8394 14.0405 40.8394 13.5178C40.8394 12.9952 40.4157 12.5717 39.8932 12.5717H12.0615C9.45284 12.5717 7.33057 14.6939 7.33057 17.3025V80.2691C7.33057 82.8777 9.45284 85 12.0615 85H55.2035C57.8121 85 59.9344 82.8777 59.9344 80.2691V37.4635C59.9344 36.9408 59.5107 36.5173 58.9882 36.5173Z" fill="#C6BFAD"/>
<path d="M61.2314 0C52.2894 0 45.0146 7.27478 45.0146 16.2167C45.0146 25.1587 52.2894 32.4334 61.2314 32.4334C70.1733 32.4334 77.4481 25.1587 77.4481 16.2167C77.4481 7.27478 70.1733 0 61.2314 0ZM61.2314 30.5413C53.3329 30.5413 46.907 24.1154 46.907 16.2169C46.907 8.31841 53.3329 1.89254 61.2314 1.89254C69.1299 1.89254 75.5557 8.31841 75.5557 16.2169C75.5557 24.1154 69.1299 30.5413 61.2314 30.5413Z" fill="#C6BFAD"/>
<path d="M61.2314 27.4836C67.4539 27.4836 72.4983 22.4392 72.4983 16.2167C72.4983 9.99419 67.4539 4.94983 61.2314 4.94983C55.0088 4.94983 49.9645 9.99419 49.9645 16.2167C49.9645 22.4392 55.0088 27.4836 61.2314 27.4836Z" fill="white"/>
<path d="M20.6787 55.058H16.4279C15.6514 55.058 15.0198 54.4264 15.0198 53.6499V49.3991C15.0198 48.6227 15.6514 47.991 16.4279 47.991H20.6787C21.4551 47.991 22.0868 48.6227 22.0868 49.3991V53.6499C22.0868 54.4264 21.4551 55.058 20.6787 55.058Z" fill="white"/>
<path d="M20.6787 65.5568H16.4279C15.6514 65.5568 15.0198 64.9251 15.0198 64.1487V59.8979C15.0198 59.1215 15.6514 58.4898 16.4279 58.4898H20.6787C21.4551 58.4898 22.0868 59.1215 22.0868 59.8979V64.1487C22.0868 64.9251 21.4551 65.5568 20.6787 65.5568Z" fill="white"/>
<path d="M20.6787 76.0556H16.4279C15.6514 76.0556 15.0198 75.4239 15.0198 74.6475V70.3967C15.0198 69.6203 15.6514 68.9886 16.4279 68.9886H20.6787C21.4551 68.9886 22.0868 69.6203 22.0868 70.3967V74.6475C22.0868 75.4239 21.4551 76.0556 20.6787 76.0556Z" fill="white"/>
<path d="M20.6787 44.501H16.4279C15.6514 44.501 15.0198 43.8693 15.0198 43.0929V38.8421C15.0198 38.0656 15.6514 37.434 16.4279 37.434H20.6787C21.4551 37.434 22.0868 38.0656 22.0868 38.8421V43.0929C22.0868 43.8693 21.4551 44.501 20.6787 44.501Z" fill="white"/>
<path d="M19.9483 40.7363C20.5325 40.7363 21.0062 40.2627 21.0062 39.6785C21.0062 39.0943 20.5325 38.6207 19.9483 38.6207C19.3641 38.6207 18.8905 39.0943 18.8905 39.6785C18.8905 40.2627 19.3641 40.7363 19.9483 40.7363Z" fill="#C6BFAD"/>
<path d="M19.9483 51.357C20.5325 51.357 21.0062 50.8834 21.0062 50.2992C21.0062 49.7149 20.5325 49.2413 19.9483 49.2413C19.3641 49.2413 18.8905 49.7149 18.8905 50.2992C18.8905 50.8834 19.3641 51.357 19.9483 51.357Z" fill="#C6BFAD"/>
<path d="M19.9483 61.9776C20.5325 61.9776 21.0062 61.504 21.0062 60.9198C21.0062 60.3355 20.5325 59.8619 19.9483 59.8619C19.3641 59.8619 18.8905 60.3355 18.8905 60.9198C18.8905 61.504 19.3641 61.9776 19.9483 61.9776Z" fill="#C6BFAD"/>
<path d="M19.9483 72.5981C20.5325 72.5981 21.0062 72.1245 21.0062 71.5402C21.0062 70.956 20.5325 70.4824 19.9483 70.4824C19.3641 70.4824 18.8905 70.956 18.8905 71.5402C18.8905 72.1245 19.3641 72.5981 19.9483 72.5981Z" fill="#C6BFAD"/>
<path d="M31.0626 55.058H26.8118C26.0354 55.058 25.4037 54.4264 25.4037 53.6499V49.3991C25.4037 48.6227 26.0354 47.991 26.8118 47.991H31.0626C31.839 47.991 32.4707 48.6227 32.4707 49.3991V53.6499C32.4707 54.4264 31.839 55.058 31.0626 55.058Z" fill="white"/>
<path d="M31.0626 65.5568H26.8118C26.0354 65.5568 25.4037 64.9251 25.4037 64.1487V59.8979C25.4037 59.1215 26.0354 58.4898 26.8118 58.4898H31.0626C31.839 58.4898 32.4707 59.1215 32.4707 59.8979V64.1487C32.4707 64.9251 31.839 65.5568 31.0626 65.5568Z" fill="white"/>
<path d="M31.0626 76.0556H26.8118C26.0354 76.0556 25.4037 75.4239 25.4037 74.6475V70.3967C25.4037 69.6203 26.0354 68.9886 26.8118 68.9886H31.0626C31.839 68.9886 32.4707 69.6203 32.4707 70.3967V74.6475C32.4707 75.4239 31.839 76.0556 31.0626 76.0556Z" fill="white"/>
<path d="M31.0626 44.501H26.8118C26.0354 44.501 25.4037 43.8693 25.4037 43.0929V38.8421C25.4037 38.0656 26.0354 37.434 26.8118 37.434H31.0626C31.839 37.434 32.4707 38.0656 32.4707 38.8421V43.0929C32.4707 43.8693 31.839 44.501 31.0626 44.501Z" fill="white"/>
<path d="M30.3322 40.7363C30.9165 40.7363 31.3901 40.2627 31.3901 39.6785C31.3901 39.0943 30.9165 38.6207 30.3322 38.6207C29.748 38.6207 29.2744 39.0943 29.2744 39.6785C29.2744 40.2627 29.748 40.7363 30.3322 40.7363Z" fill="#C6BFAD"/>
<path d="M30.3322 51.357C30.9165 51.357 31.3901 50.8834 31.3901 50.2992C31.3901 49.7149 30.9165 49.2413 30.3322 49.2413C29.748 49.2413 29.2744 49.7149 29.2744 50.2992C29.2744 50.8834 29.748 51.357 30.3322 51.357Z" fill="#C6BFAD"/>
<path d="M30.3322 61.9776C30.9165 61.9776 31.3901 61.504 31.3901 60.9198C31.3901 60.3355 30.9165 59.8619 30.3322 59.8619C29.748 59.8619 29.2744 60.3355 29.2744 60.9198C29.2744 61.504 29.748 61.9776 30.3322 61.9776Z" fill="#C6BFAD"/>
<path d="M30.3322 72.5981C30.9165 72.5981 31.3901 72.1245 31.3901 71.5402C31.3901 70.956 30.9165 70.4824 30.3322 70.4824C29.748 70.4824 29.2744 70.956 29.2744 71.5402C29.2744 72.1245 29.748 72.5981 30.3322 72.5981Z" fill="#C6BFAD"/>
<path d="M41.4465 55.058H37.1957C36.4193 55.058 35.7876 54.4264 35.7876 53.6499V49.3991C35.7876 48.6227 36.4193 47.991 37.1957 47.991H41.4465C42.2229 47.991 42.8546 48.6227 42.8546 49.3991V53.6499C42.8546 54.4264 42.2229 55.058 41.4465 55.058Z" fill="white"/>
<path d="M41.4465 65.5568H37.1957C36.4193 65.5568 35.7876 64.9251 35.7876 64.1487V59.8979C35.7876 59.1215 36.4193 58.4898 37.1957 58.4898H41.4465C42.2229 58.4898 42.8546 59.1215 42.8546 59.8979V64.1487C42.8546 64.9251 42.2229 65.5568 41.4465 65.5568Z" fill="white"/>
<path d="M41.4465 76.0556H37.1957C36.4193 76.0556 35.7876 75.4239 35.7876 74.6475V70.3967C35.7876 69.6203 36.4193 68.9886 37.1957 68.9886H41.4465C42.2229 68.9886 42.8546 69.6203 42.8546 70.3967V74.6475C42.8546 75.4239 42.2229 76.0556 41.4465 76.0556Z" fill="white"/>
<path d="M41.4465 44.501H37.1957C36.4193 44.501 35.7876 43.8693 35.7876 43.0929V38.8421C35.7876 38.0656 36.4193 37.434 37.1957 37.434H41.4465C42.2229 37.434 42.8546 38.0656 42.8546 38.8421V43.0929C42.8546 43.8693 42.2229 44.501 41.4465 44.501Z" fill="white"/>
<path d="M40.7163 40.7363C41.3005 40.7363 41.7741 40.2627 41.7741 39.6785C41.7741 39.0943 41.3005 38.6207 40.7163 38.6207C40.1321 38.6207 39.6584 39.0943 39.6584 39.6785C39.6584 40.2627 40.1321 40.7363 40.7163 40.7363Z" fill="#C6BFAD"/>
<path d="M40.7163 51.357C41.3005 51.357 41.7741 50.8834 41.7741 50.2992C41.7741 49.7149 41.3005 49.2413 40.7163 49.2413C40.1321 49.2413 39.6584 49.7149 39.6584 50.2992C39.6584 50.8834 40.1321 51.357 40.7163 51.357Z" fill="#C6BFAD"/>
<path d="M40.7163 61.9776C41.3005 61.9776 41.7741 61.504 41.7741 60.9198C41.7741 60.3355 41.3005 59.8619 40.7163 59.8619C40.1321 59.8619 39.6584 60.3355 39.6584 60.9198C39.6584 61.504 40.1321 61.9776 40.7163 61.9776Z" fill="#C6BFAD"/>
<path d="M40.7163 72.5981C41.3005 72.5981 41.7741 72.1245 41.7741 71.5402C41.7741 70.956 41.3005 70.4824 40.7163 70.4824C40.1321 70.4824 39.6584 70.956 39.6584 71.5402C39.6584 72.1245 40.1321 72.5981 40.7163 72.5981Z" fill="#C6BFAD"/>
<path d="M51.8304 55.058H47.5796C46.8032 55.058 46.1715 54.4264 46.1715 53.6499V49.3991C46.1715 48.6227 46.8032 47.991 47.5796 47.991H51.8304C52.6068 47.991 53.2385 48.6227 53.2385 49.3991V53.6499C53.2385 54.4264 52.6066 55.058 51.8304 55.058Z" fill="white"/>
<path d="M51.8304 44.501H47.5796C46.8032 44.501 46.1715 43.8693 46.1715 43.0929V38.8421C46.1715 38.0656 46.8032 37.434 47.5796 37.434H51.8304C52.6068 37.434 53.2385 38.0656 53.2385 38.8421V43.0929C53.2385 43.8693 52.6066 44.501 51.8304 44.501Z" fill="white"/>
<path d="M51.1001 40.7363C51.6843 40.7363 52.1579 40.2627 52.1579 39.6785C52.1579 39.0943 51.6843 38.6207 51.1001 38.6207C50.5158 38.6207 50.0422 39.0943 50.0422 39.6785C50.0422 40.2627 50.5158 40.7363 51.1001 40.7363Z" fill="#C6BFAD"/>
<path d="M51.1001 51.357C51.6843 51.357 52.1579 50.8834 52.1579 50.2992C52.1579 49.7149 51.6843 49.2413 51.1001 49.2413C50.5158 49.2413 50.0422 49.7149 50.0422 50.2992C50.0422 50.8834 50.5158 51.357 51.1001 51.357Z" fill="#C6BFAD"/>
<path d="M18.7152 20.7714H15.589C15.0663 20.7714 14.6428 20.3477 14.6428 19.8253C14.6428 19.3028 15.0663 18.8791 15.589 18.8791H18.7152C19.2378 18.8791 19.6613 19.3028 19.6613 19.8253C19.6613 20.3477 19.2378 20.7714 18.7152 20.7714Z" fill="#C6BFAD"/>
<path d="M66.611 45.8552C66.3688 45.8552 66.1267 45.7628 65.9419 45.5779C65.5723 45.2085 65.5723 44.6094 65.9419 44.24L67.8342 42.3477C68.2038 41.9781 68.8027 41.9781 69.1723 42.3477C69.5419 42.7171 69.5419 43.3162 69.1723 43.6856L67.2799 45.5779C67.0952 45.7628 66.8532 45.8552 66.611 45.8552Z" fill="#C6BFAD"/>
<path d="M0.946319 46.8013C0.704097 46.8013 0.462066 46.709 0.277183 46.5241C-0.0923942 46.1547 -0.0923942 45.5556 0.277183 45.1862L2.16954 43.2938C2.53911 42.9243 3.13804 42.9243 3.50762 43.2938C3.8772 43.6632 3.8772 44.2624 3.50762 44.6317L1.61527 46.5241C1.43057 46.709 1.18854 46.8013 0.946319 46.8013Z" fill="#C6BFAD"/>
<path d="M71.5522 77.948C71.3099 77.948 71.0679 77.8556 70.883 77.6708C70.5134 77.3014 70.5134 76.7023 70.883 76.3329L72.7754 74.4405C73.1449 74.0709 73.7439 74.0709 74.1135 74.4405C74.483 74.8099 74.483 75.409 74.1135 75.7784L72.2211 77.6708C72.0364 77.8556 71.7944 77.948 71.5522 77.948Z" fill="#C6BFAD"/>
<path d="M43.2538 7.77532C43.0116 7.77532 42.7695 7.68298 42.5847 7.49809L41.3614 6.27487L40.1382 7.49809C39.7686 7.86767 39.1697 7.86767 38.8001 7.49809C38.4306 7.1287 38.4306 6.52959 38.8001 6.1602L40.6925 4.26784C41.0621 3.89827 41.661 3.89827 42.0306 4.26784L43.9229 6.1602C44.2925 6.52959 44.2925 7.1287 43.9229 7.49809C43.738 7.68298 43.496 7.77532 43.2538 7.77532Z" fill="#C6BFAD"/>
<path d="M69.4495 57.3992C69.2072 57.3992 68.9652 57.3069 68.7803 57.122L67.5571 55.899L66.3339 57.1222C65.9643 57.4917 65.3654 57.4917 64.9958 57.1222C64.6262 56.7528 64.6262 56.1537 64.9958 55.7843L66.8882 53.8919C67.2577 53.5224 67.8567 53.5224 68.2263 53.8919L70.1186 55.7843C70.4882 56.1537 70.4882 56.7528 70.1186 57.1222C69.9337 57.3069 69.6917 57.3992 69.4495 57.3992Z" fill="#C6BFAD"/>
<g clip-path="url(#clip0)">
<path fill-rule="evenodd" clip-rule="evenodd" d="M60.4785 20.0043L60.8087 8.83996L61.8983 8.37616L62.0303 19.1099L60.4785 20.0043Z" fill="#C6BFAD" stroke="#C6BFAD"/>
<path fill-rule="evenodd" clip-rule="evenodd" d="M53.7429 20.6669L55.2617 20.7332C55.291 13.2859 59.2758 10.8304 61.2378 10.7614C66.5394 10.9312 67.1471 17.7326 67.346 20.7332L68.8648 20.7994C68.7505 13.6107 64.8239 9.66687 61.601 9.73444C56.1057 9.92879 54.0127 15.5568 53.7429 20.6669Z" fill="#C6BFAD" stroke="#C6BFAD"/>
</g>
<defs>
<clipPath id="clip0">
<rect width="15.1388" height="12.4895" fill="white" transform="translate(53.7429 8.34302)"/>
</clipPath>
</defs>
</svg>
