<svg width="85" height="79" viewBox="0 0 85 79" fill="none" xmlns="http://www.w3.org/2000/svg">
<path d="M81.0465 44.4768H55.0194V24.0504H74.943L75.8625 27.1249L81.0465 44.4768Z" fill="#F0EAE0"/>
<path d="M75.7752 27.0155H55.0194V24.0504H74.8596L75.7752 27.0155Z" fill="white"/>
<path d="M78.7404 36.6094L70.664 44.4767H67.5388L78.0233 34.2635L78.7404 36.6094Z" fill="white"/>
<path d="M77.4225 32.8368L65.6441 44.4768H59.3024L75.9681 28.0039L77.4225 32.8368Z" fill="white"/>
<path d="M81.9147 57.9845H56.0679C55.4889 57.9845 55.0194 57.5175 55.0194 56.9415V43.1589H81.9147C83.0729 43.1589 84.0117 44.0928 84.0117 45.2449V55.8986C84.0117 57.0506 83.0729 57.9845 81.9147 57.9845Z" fill="#F0EAE0"/>
<path d="M83.9704 51.7248H81.0877C80.5189 51.7248 80.0581 51.2824 80.0581 50.7364C80.0581 50.1904 80.5189 49.748 81.0877 49.748H83.9704C84.5391 49.748 85 50.1904 85 50.7364C85 51.2824 84.5391 51.7248 83.9704 51.7248Z" fill="#C6BFAD"/>
<path d="M83.9486 48.4302H79.4624C78.8815 48.4302 78.4109 47.9878 78.4109 47.4419C78.4109 46.8959 78.8815 46.4535 79.4624 46.4535H83.9486C84.5294 46.4535 85 46.8959 85 47.4419C85 47.9878 84.5294 48.4302 83.9486 48.4302Z" fill="#C6BFAD"/>
<path d="M81.3177 24.7093H55.0194V18.7791H81.3177C81.8957 18.7791 82.3644 19.2369 82.3644 19.8015V23.6868C82.3644 24.2514 81.8959 24.7093 81.3177 24.7093Z" fill="#F0EAE0"/>
<path d="M56.6061 57.9845H4.67291C4.09371 57.9845 3.62402 57.517 3.62402 56.9406V18.6716C3.62402 16.3655 5.50237 14.4961 7.81956 14.4961H53.4595C55.7767 14.4961 57.655 16.3655 57.655 18.6716V56.9406C57.655 57.517 57.1855 57.9845 56.6061 57.9845Z" fill="white"/>
<path d="M6.20374 27.6744H3.67991C3.10304 27.6744 2.63562 27.1583 2.63562 26.5213C2.63562 25.8844 3.10304 25.3682 3.67991 25.3682H6.20374C6.7806 25.3682 7.24802 25.8844 7.24802 26.5213C7.24802 27.1583 6.7806 27.6744 6.20374 27.6744Z" fill="#C6BFAD"/>
<path d="M7.52852 23.3915H3.67295C3.09993 23.3915 2.63562 22.9491 2.63562 22.4031C2.63562 21.8571 3.09993 21.4147 3.67295 21.4147H7.52852C8.10154 21.4147 8.56585 21.8571 8.56585 22.4031C8.56585 22.9491 8.10154 23.3915 7.52852 23.3915Z" fill="#C6BFAD"/>
<path d="M13.8372 60.6202H2.05029C1.46392 60.6202 0.988403 60.1387 0.988403 59.5451V55.4355C0.988403 54.8419 1.46392 54.3605 2.05029 54.3605H13.8372V60.6202Z" fill="#F0EAE0"/>
<path d="M18.1201 66.2209C22.669 66.2209 26.3565 62.6071 26.3565 58.1492C26.3565 53.6913 22.669 50.0775 18.1201 50.0775C13.5712 50.0775 9.88367 53.6913 9.88367 58.1492C9.88367 62.6071 13.5712 66.2209 18.1201 66.2209Z" fill="#F0EAE0"/>
<path d="M18.1201 61.938C20.1216 61.938 21.7442 60.2417 21.7442 58.1492C21.7442 56.0568 20.1216 54.3605 18.1201 54.3605C16.1186 54.3605 14.4961 56.0568 14.4961 58.1492C14.4961 60.2417 16.1186 61.938 18.1201 61.938Z" fill="#C6BFAD"/>
<path d="M70.8334 66.2209C75.3822 66.2209 79.0698 62.6071 79.0698 58.1492C79.0698 53.6913 75.3822 50.0775 70.8334 50.0775C66.2845 50.0775 62.5969 53.6913 62.5969 58.1492C62.5969 62.6071 66.2845 66.2209 70.8334 66.2209Z" fill="#F0EAE0"/>
<path d="M70.8334 61.938C72.8349 61.938 74.4574 60.2417 74.4574 58.1492C74.4574 56.0568 72.8349 54.3605 70.8334 54.3605C68.8319 54.3605 67.2094 56.0568 67.2094 58.1492C67.2094 60.2417 68.8319 61.938 70.8334 61.938Z" fill="#C6BFAD"/>
<path d="M52.0243 52.7132H48.4602C47.8979 52.7132 47.4419 52.2572 47.4419 51.6949V48.1307C47.4419 47.5684 47.8979 47.1124 48.4602 47.1124H52.0243C52.5867 47.1124 53.0427 47.5684 53.0427 48.1307V51.6949C53.0427 52.2572 52.5867 52.7132 52.0243 52.7132Z" fill="#F0EAE0"/>
<path d="M81.85 41.9951H81.3916L77.9502 30.4291H82.0602V31.6192C82.0602 32.1992 82.5302 32.6691 83.1101 32.6691C83.6901 32.6691 84.1601 32.1992 84.1601 31.6192V28.1892C84.1601 27.6092 83.6901 27.1392 83.1101 27.1392C82.5302 27.1392 82.0602 27.6092 82.0602 28.1892V28.3292H77.3253L76.5442 25.7043H81.298C82.4558 25.7043 83.3978 24.7623 83.3978 23.6044V19.6145C83.3978 18.4566 82.4558 17.5146 81.298 17.5146H58.6665C58.2329 15.0539 56.0812 13.1783 53.4982 13.1783H7.81329C4.91866 13.1783 2.56369 15.5333 2.56369 18.4281V47.2548C2.56369 47.8348 3.03364 48.3047 3.61361 48.3047C4.19359 48.3047 4.66353 47.8348 4.66353 47.2548V18.4281C4.66353 16.6912 6.07651 15.2782 7.81329 15.2782H53.4982C55.235 15.2782 56.648 16.6912 56.648 18.4281V56.9197H27.2616C26.7385 52.3177 22.8231 48.73 18.0836 48.73C14.7373 48.73 11.8009 50.5183 10.1796 53.1894H2.09984C0.941988 53.1894 0 54.1314 0 55.2893V59.3031C0 60.461 0.941988 61.403 2.09984 61.403H9.5087C10.8744 64.8022 14.2023 67.2093 18.0838 67.2093C22.8231 67.2093 26.7385 63.6216 27.2618 59.0196H61.6481C62.1712 63.6216 66.0865 67.2093 70.8261 67.2093C75.5656 67.2093 79.4808 63.6216 80.0041 59.0196H81.8502C83.587 59.0196 85 57.6066 85 55.8697V45.145C84.9998 43.4081 83.587 41.9951 81.85 41.9951ZM2.09984 59.3031V55.2895H9.24223C8.98437 56.1383 8.84452 57.0379 8.84452 57.9698C8.84452 58.4226 8.87875 58.8676 8.94195 59.3033H2.09984V59.3031ZM18.0838 65.1094C14.147 65.1094 10.9444 61.9066 10.9444 57.9696C10.9444 54.0327 14.147 50.8299 18.0838 50.8299C22.0206 50.8299 25.2233 54.0327 25.2233 57.9696C25.2233 61.9066 22.0206 65.1094 18.0838 65.1094ZM81.2992 23.6044H58.7478V19.6145H81.2982L81.2992 23.6044ZM70.8259 65.1094C66.8891 65.1094 63.6864 61.9066 63.6864 57.9696C63.6864 54.0327 66.8891 50.8299 70.8259 50.8299C74.7627 50.8299 77.9653 54.0327 77.9653 57.9696C77.9653 61.9066 74.7629 65.1094 70.8259 65.1094ZM82.8999 55.8697C82.8999 56.4487 82.429 56.9197 81.85 56.9197H80.0039C79.4808 52.3177 75.5654 48.73 70.8259 48.73C66.0863 48.73 62.1712 52.3177 61.6479 56.9197H58.7476V25.7043H74.3534L79.2011 41.9951H64.8373C64.2574 41.9951 63.7874 42.4651 63.7874 43.0451C63.7874 43.6251 64.2574 44.095 64.8373 44.095H81.8502C82.4292 44.095 82.9002 44.566 82.9002 45.145V55.8697H82.8999Z" fill="#C6BFAD"/>
<path d="M51.9225 53.7015C53.0851 53.7015 54.031 52.7951 54.031 51.6809V48.1447C54.031 47.0305 53.0851 46.124 51.9225 46.124H48.2326C47.0699 46.124 46.124 47.0305 46.124 48.1447V51.6809C46.124 52.7951 47.0699 53.7015 48.2326 53.7015H51.9225ZM48.2326 48.1447H51.9225L51.9237 51.6809H48.2326V48.1447Z" fill="#C6BFAD"/>
<path d="M62.5663 47.7714H61.3096C60.7467 47.7714 60.2906 47.2552 60.2906 46.6182C60.2906 45.9813 60.7467 45.4651 61.3096 45.4651H62.5663C63.1292 45.4651 63.5852 45.9813 63.5852 46.6182C63.5852 47.2552 63.1292 47.7714 62.5663 47.7714Z" fill="#C6BFAD"/>
<path d="M20.4263 4.28295C20.1735 4.28295 19.9203 4.17844 19.7275 3.96922C19.3415 3.5512 19.3415 2.8732 19.7275 2.45518L21.7043 0.313676C22.09 -0.104559 22.7163 -0.104559 23.1019 0.313676C23.488 0.731697 23.488 1.4097 23.1019 1.82772L21.1251 3.96922C20.9324 4.17823 20.6792 4.28295 20.4263 4.28295Z" fill="#C6BFAD"/>
<path d="M20.8382 78.0814C20.5643 78.0814 20.2899 77.9769 20.0811 77.7677C19.6629 77.3497 19.6629 76.6717 20.0811 76.2536L22.2227 74.1121C22.6405 73.6939 23.3189 73.6939 23.7367 74.1121C24.155 74.5302 24.155 75.2082 23.7367 75.6262L21.5952 77.7677C21.3864 77.9767 21.1123 78.0814 20.8382 78.0814Z" fill="#C6BFAD"/>
<path d="M55.0193 75.7752C54.7665 75.7752 54.5133 75.6707 54.3206 75.4615C53.9345 75.0434 53.9345 74.3654 54.3206 73.9474L56.2974 71.8059C56.683 71.3877 57.3093 71.3877 57.6949 71.8059C58.081 72.2239 58.081 72.9019 57.6949 73.32L55.7181 75.4615C55.5252 75.6705 55.2722 75.7752 55.0193 75.7752Z" fill="#C6BFAD"/>
<path d="M36.8444 7.90697C36.5775 7.90697 36.3102 7.80246 36.1068 7.59324L34.7578 6.20897L33.4088 7.59324C33.0017 8.01148 32.3407 8.01148 31.9336 7.59324C31.5261 7.17522 31.5261 6.49722 31.9336 6.0792L34.0202 3.9377C34.4273 3.51946 35.0883 3.51946 35.4954 3.9377L37.582 6.0792C37.9895 6.49722 37.9895 7.17522 37.582 7.59324C37.3785 7.80246 37.1112 7.90697 36.8444 7.90697Z" fill="#C6BFAD"/>
<path d="M36.5149 71.1628C36.248 71.1628 35.9807 71.0583 35.7773 70.849L34.4283 69.4648L33.0793 70.849C32.6722 71.2673 32.0112 71.2673 31.6041 70.849C31.1966 70.431 31.1966 69.753 31.6041 69.335L33.6907 67.1935C34.0978 66.7753 34.7588 66.7753 35.1659 67.1935L37.2525 69.335C37.66 69.753 37.66 70.431 37.2525 70.849C37.0491 71.0583 36.7818 71.1628 36.5149 71.1628Z" fill="#C6BFAD"/>
<path d="M19.2966 31.9333C19.2966 29.7114 19.9555 27.5394 21.1899 25.6919C22.4243 23.8445 24.1789 22.4046 26.2316 21.5543C28.2844 20.704 30.5432 20.4816 32.7224 20.915C34.9016 21.3485 36.9034 22.4184 38.4745 23.9896C40.0456 25.5607 41.1156 27.5624 41.549 29.7416C41.9825 31.9208 41.76 34.1796 40.9098 36.2324C40.0595 38.2852 38.6196 40.0397 36.7721 41.2741C34.9247 42.5086 32.7527 43.1674 30.5308 43.1674C27.5513 43.1674 24.6938 41.9838 22.587 39.877C20.4802 37.7702 19.2966 34.9128 19.2966 31.9333V31.9333Z" fill="#C6BFAD"/>
<path d="M22.3291 27.0243V27.2145H23.8003C24.1261 27.2094 24.4497 27.2702 24.7515 27.3932C25.0533 27.5161 25.3272 27.6987 25.5567 27.93C25.7884 28.1528 25.9713 28.4213 26.0936 28.7185C26.2159 29.0157 26.2751 29.3351 26.2673 29.6565C26.2714 29.981 26.2082 30.3029 26.0816 30.6018C25.955 30.9007 25.7677 31.17 25.5317 31.3929C25.064 31.8513 24.4352 32.1081 23.7803 32.1081C23.1254 32.1081 22.4966 31.8513 22.0289 31.3929C21.7935 31.1698 21.607 30.9003 21.4813 30.6014C21.3555 30.3025 21.2932 29.9807 21.2983 29.6565V25.9935C21.4334 25.9919 21.5674 26.0187 21.6915 26.0721C21.8156 26.1256 21.9271 26.2045 22.0188 26.3037C22.1181 26.3954 22.197 26.507 22.2504 26.6311C22.3039 26.7552 22.3307 26.8892 22.3291 27.0243ZM25.2265 29.6565C25.2294 29.464 25.1932 29.2729 25.1201 29.0949C25.047 28.9168 24.9385 28.7555 24.8011 28.6206C24.6733 28.4833 24.5183 28.3742 24.346 28.3001C24.1737 28.226 23.9878 28.1886 23.8003 28.1903H22.3341V29.6565C22.3304 29.8504 22.3652 30.0431 22.4365 30.2235C22.5078 30.4039 22.6141 30.5683 22.7494 30.7073C22.8821 30.8533 23.0446 30.9691 23.2259 31.0468C23.4072 31.1245 23.6031 31.1623 23.8003 31.1577C23.9893 31.1565 24.1759 31.1158 24.3483 31.0383C24.5206 30.9607 24.6749 30.848 24.8011 30.7073C24.9387 30.5695 25.0472 30.4055 25.1202 30.225C25.1933 30.0445 25.2294 29.8512 25.2265 29.6565Z" fill="#F7FAFB"/>
<path d="M31.4765 29.6564V32.1034H28.9745C28.6496 32.1069 28.3272 32.0454 28.0265 31.9225C27.7257 31.7996 27.4525 31.6178 27.223 31.3878C26.9917 31.1622 26.8078 30.8925 26.6823 30.5948C26.5567 30.297 26.4921 29.9771 26.4921 29.6539C26.4921 29.3307 26.5567 29.0108 26.6823 28.7131C26.8078 28.4153 26.9917 28.1456 27.223 27.92C27.6907 27.4616 28.3195 27.2048 28.9745 27.2048C29.6294 27.2048 30.2582 27.4616 30.7259 27.92C30.9664 28.1401 31.1576 28.4087 31.2869 28.7079C31.4163 29.0072 31.4809 29.3304 31.4765 29.6564ZM30.4356 31.1276V29.6564C30.439 29.4631 30.403 29.2712 30.3299 29.0923C30.2568 28.9134 30.148 28.7512 30.0103 28.6156C29.8842 28.4751 29.7299 28.3628 29.5574 28.286C29.385 28.2093 29.1983 28.1698 29.0095 28.1702C28.8167 28.1675 28.6256 28.2059 28.4487 28.2827C28.2719 28.3594 28.1133 28.4729 27.9837 28.6156C27.7146 28.8952 27.5642 29.2683 27.5642 29.6564C27.5642 30.0445 27.7146 30.4176 27.9837 30.6973C28.1155 30.8362 28.2747 30.9462 28.4513 31.0203C28.6279 31.0944 28.818 31.1309 29.0095 31.1276H30.4356Z" fill="#F7FAFB"/>
<path d="M31.4765 37.4528H30.4507V32.6288C30.7224 32.6328 30.9818 32.7428 31.1735 32.9354C31.3652 33.128 31.4739 33.388 31.4765 33.6597V34.5654H32.8426C33.0308 34.5652 33.2169 34.526 33.3892 34.4502C33.5615 34.3744 33.7161 34.2637 33.8434 34.1251C34.063 33.9327 34.2067 33.6683 34.2488 33.3795C34.2488 33.3795 34.2938 32.6288 35.2946 32.6288V33.0842C35.2967 33.471 35.2039 33.8525 35.0244 34.1951C34.8546 34.5342 34.6099 34.8302 34.3088 35.0608C34.6168 35.2881 34.8671 35.5847 35.0394 35.9265C35.2183 36.2658 35.3111 36.6439 35.3096 37.0274V37.4528H34.3088V37.0274C34.3114 36.8347 34.2755 36.6434 34.2034 36.4647C34.1312 36.286 34.0241 36.1235 33.8885 35.9866C33.7614 35.8473 33.6069 35.7358 33.4347 35.6592C33.2624 35.5825 33.0762 35.5424 32.8877 35.5412H31.4765V37.4528Z" fill="#F7FAFB"/>
<path d="M39.6182 35.0708C39.6207 35.2635 39.5849 35.4548 39.5127 35.6335C39.4405 35.8122 39.3335 35.9748 39.1978 36.1117C38.9197 36.372 38.5529 36.5168 38.172 36.5168C37.791 36.5168 37.4243 36.372 37.1461 36.1117C37.0088 35.9737 36.9004 35.8096 36.8274 35.6292C36.7544 35.4487 36.7181 35.2555 36.7208 35.0608V33.6597C36.7182 33.3871 36.6087 33.1264 36.416 32.9337C36.2232 32.7409 35.9625 32.6315 35.69 32.6288V35.0708C35.6851 35.3962 35.748 35.7191 35.8747 36.0189C36.0013 36.3187 36.1889 36.5888 36.4256 36.8122C36.8901 37.2767 37.5201 37.5377 38.177 37.5377C38.8339 37.5377 39.4639 37.2767 39.9284 36.8122C40.1644 36.5886 40.3512 36.3183 40.477 36.0184C40.6028 35.7186 40.6648 35.3959 40.659 35.0708V32.6288C40.5229 32.6274 40.3879 32.6537 40.2622 32.7061C40.1366 32.7586 40.023 32.8362 39.9284 32.9341C39.832 33.0285 39.7557 33.1415 39.7041 33.2662C39.6525 33.3909 39.6267 33.5247 39.6282 33.6597L39.6182 35.0708Z" fill="#F7FAFB"/>
</svg>
