<svg width="79" height="85" viewBox="0 0 79 85" fill="none" xmlns="http://www.w3.org/2000/svg">
<path d="M69.2036 78.4185L60.5557 76.8343C60.3098 76.7891 60.0602 76.8813 59.9011 77.073L54.295 83.8455C53.955 84.256 53.2967 84.1421 53.1141 83.6412L43.7229 57.8386L39.6377 46.6137L56.4994 40.476L59.892 49.7948L69.9758 77.5052C70.1584 78.0061 69.728 78.5143 69.2036 78.4185Z" fill="#F0EAE0"/>
<path d="M64.1744 77.4979L60.5557 76.8342C60.3116 76.789 60.0584 76.8813 59.9011 77.0729L57.5537 79.9086L49.9005 58.8784L44.7573 44.7492L51.378 42.3404L56.2028 55.5979L64.1744 77.4979Z" fill="white"/>
<path d="M38.748 46.6137L34.6628 57.8386L25.2716 83.6412C25.089 84.1421 24.4307 84.256 24.0907 83.8455L18.4846 77.073C18.3255 76.8813 18.0759 76.7891 17.83 76.8343L9.1821 78.4185C8.65766 78.5143 8.22725 78.0061 8.4099 77.5052L18.4937 49.7948L21.8863 40.476L38.748 46.6137Z" fill="#F0EAE0"/>
<path d="M33.6283 44.7492L28.4852 58.8784L20.8319 79.9086L18.4846 77.0729C18.3273 76.8813 18.0741 76.789 17.83 76.8342L14.2113 77.4979L22.1828 55.5979L27.0077 42.3404L33.6283 44.7492Z" fill="white"/>
<path d="M40.6676 1.66535L42.0138 3.56238C42.601 4.38973 43.7537 4.57238 44.5678 3.96692L46.4345 2.57878C47.434 1.83552 48.8681 2.30137 49.2397 3.49023L49.9338 5.71042C50.2365 6.67883 51.2765 7.2087 52.2377 6.88445L54.442 6.14101C55.6222 5.74298 56.8421 6.62928 56.8282 7.87474L56.8023 10.2009C56.7909 11.2154 57.6163 12.0406 58.6308 12.0294L60.957 12.0036C62.2025 11.9896 63.0888 13.2096 62.6907 14.3898L61.9473 16.5941C61.623 17.5554 62.1529 18.5953 63.1213 18.898L65.3415 19.5921C66.5304 19.9637 66.9964 21.3978 66.253 22.3973L64.8646 24.2639C64.2592 25.0781 64.4418 26.2308 65.2692 26.818L67.1662 28.1642C68.182 28.885 68.182 30.3929 67.1662 31.1137L65.2692 32.4599C64.4418 33.0471 64.2592 34.1998 64.8646 35.0139L66.253 36.8806C66.9962 37.8801 66.5304 39.3142 65.3415 39.6858L63.1213 40.3799C62.1529 40.6826 61.623 41.7226 61.9473 42.6838L62.6907 44.8881C63.0888 46.0683 62.2025 47.2882 60.957 47.2743L58.6308 47.2484C57.6163 47.237 56.7911 48.0624 56.8023 49.0769L56.8282 51.4031C56.8421 52.6486 55.6222 53.5349 54.442 53.1368L52.2377 52.3934C51.2763 52.0691 50.2365 52.599 49.9338 53.5674L49.2397 55.7876C48.8681 56.9765 47.434 57.4425 46.4345 56.6991L44.5678 55.3109C43.7537 54.7055 42.601 54.8881 42.0138 55.7155L40.6676 57.6125C39.9467 58.6283 38.4389 58.6283 37.7181 57.6125L36.3719 55.7155C35.7847 54.8881 34.632 54.7055 33.8178 55.3109L31.9512 56.6991C30.9517 57.4423 29.5176 56.9765 29.1459 55.7876L28.4519 53.5674C28.1491 52.599 27.1091 52.0691 26.1479 52.3934L23.9437 53.1368C22.7635 53.5349 21.5435 52.6486 21.5574 51.4031L21.5833 49.0769C21.5947 48.0624 20.7693 47.2372 19.7548 47.2484L17.4286 47.2743C16.1832 47.2882 15.2969 46.0683 15.6949 44.8881L16.4383 42.6838C16.7626 41.7224 16.2327 40.6826 15.2643 40.3799L13.0441 39.6858C11.8553 39.3142 11.3894 37.8801 12.1327 36.8806L13.5208 35.0139C14.1263 34.1998 13.9436 33.0471 13.1163 32.4599L11.2192 31.1137C10.2034 30.3929 10.2034 28.885 11.2192 28.1642L13.1163 26.818C13.9436 26.2308 14.1263 25.0781 13.5208 24.2639L12.1327 22.3973C11.3894 21.3978 11.8553 19.9637 13.0441 19.5921L15.2643 18.898C16.2327 18.5953 16.7626 17.5552 16.4383 16.5941L15.6949 14.3898C15.2969 13.2096 16.1832 11.9896 17.4286 12.0036L19.7548 12.0294C20.7693 12.0408 21.5945 11.2154 21.5833 10.2009L21.5574 7.87474C21.5435 6.62928 22.7635 5.74298 23.9437 6.14101L26.1479 6.88445C27.1093 7.2087 28.1491 6.67883 28.4519 5.71042L29.1459 3.49023C29.5176 2.30137 30.9517 1.83534 31.9512 2.57878L33.8178 3.96692C34.632 4.57238 35.7847 4.38973 36.3719 3.56238L37.7181 1.66535C38.4389 0.649556 39.9467 0.649556 40.6676 1.66535Z" fill="#F0EAE0"/>
<path d="M70.8256 77.1954L61.6733 52.0498C61.5026 51.5805 60.9836 51.3386 60.5145 51.5095C60.0452 51.6802 59.8032 52.199 59.9741 52.6683L68.9982 77.462L60.7185 75.9449C60.1512 75.8423 59.5714 76.0527 59.2039 76.4964L53.8365 82.9804L44.0302 56.0379L45.895 57.425C46.5992 57.9484 47.5181 58.099 48.3519 57.8281C49.1865 57.557 49.841 56.8951 50.103 56.0576L50.7971 53.8374C50.8702 53.6033 51.0309 53.413 51.2496 53.3016C51.4682 53.19 51.7163 53.1721 51.9491 53.2504L54.1534 53.9939C54.984 54.274 55.9046 54.1339 56.6144 53.6183C57.3242 53.1027 57.7424 52.2708 57.7328 51.3934L57.7067 49.0672C57.7038 48.822 57.7981 48.5912 57.9715 48.4178C58.1424 48.2469 58.369 48.1529 58.6106 48.1529C58.614 48.1529 58.6175 48.1529 58.6211 48.153L60.9471 48.1791C60.9572 48.1791 60.967 48.1793 60.9771 48.1793C61.8433 48.1791 62.662 47.7626 63.172 47.0607C63.6877 46.3509 63.8281 45.4308 63.5476 44.5997L62.8041 42.3954C62.7256 42.1628 62.7439 41.9145 62.8553 41.6959C62.9667 41.4772 63.157 41.3165 63.391 41.2434L65.6115 40.5493C66.449 40.2875 67.1107 39.6328 67.382 38.7982C67.6531 37.9638 67.5022 37.0453 66.9787 36.3411L65.5905 34.4749C65.4439 34.2779 65.3844 34.0359 65.4229 33.7934C65.4612 33.5513 65.5925 33.3395 65.7925 33.1977L67.6898 31.8514C68.4054 31.3436 68.8323 30.5166 68.8323 29.6393C68.8323 28.762 68.4054 27.9349 67.6898 27.4271L65.7925 26.0811C65.5927 25.9391 65.4612 25.7273 65.4229 25.4852C65.3844 25.2427 65.4439 25.0007 65.5904 24.804L66.9789 22.9373C67.5024 22.2333 67.6532 21.3148 67.382 20.4804C67.1107 19.646 66.449 18.9913 65.6113 18.7293L63.3911 18.0352C63.157 17.9622 62.9667 17.8014 62.8553 17.5827C62.7439 17.3641 62.7256 17.1158 62.8041 16.8832L63.5476 14.679C63.8281 13.8475 63.6875 12.9273 63.1718 12.2175C62.656 11.5077 61.8287 11.0938 60.9471 11.0996L58.6211 11.1256C58.6175 11.1258 58.6142 11.1258 58.6106 11.1258C58.3692 11.1258 58.1424 11.0317 57.9715 10.8608C57.7981 10.6874 57.704 10.4567 57.7067 10.2113L57.7328 7.88526C57.7425 7.00782 57.3244 6.17612 56.6144 5.66036C55.9046 5.1446 54.9843 5.00427 54.1534 5.28475L51.9491 6.02819C51.7165 6.1065 51.4682 6.08859 51.2496 5.97702C51.0309 5.86562 50.8702 5.67537 50.7971 5.44136L50.103 3.2208C49.8412 2.38332 49.1865 1.72162 48.3519 1.45035C47.5183 1.18 46.599 1.33009 45.8948 1.85363L44.0285 3.24178C43.8316 3.38826 43.5898 3.44794 43.3471 3.40942C43.105 3.37108 42.8932 3.23979 42.7514 3.03978L41.4053 1.14256H41.4051C40.8973 0.426968 40.0703 0 39.193 0C38.3157 0 37.4886 0.426968 36.9808 1.14256L35.6348 3.03978C35.4928 3.23961 35.281 3.37108 35.0389 3.40942C34.7956 3.44794 34.5544 3.38826 34.3576 3.24196L32.491 1.85345C31.7866 1.32973 30.8676 1.17945 30.0341 1.45035C29.1997 1.72162 28.545 2.38332 28.283 3.22098L27.5889 5.44118C27.5158 5.67537 27.3551 5.86562 27.1364 5.97702C26.9174 6.08841 26.6695 6.10632 26.4369 6.02819L24.2327 5.28475C23.4017 5.00427 22.4812 5.1446 21.7716 5.66036C21.0616 6.17612 20.6437 7.00782 20.6532 7.88526L20.6793 10.2113C20.6822 10.4565 20.588 10.6874 20.4145 10.8608C20.2436 11.0317 20.0169 11.1258 19.7754 11.1258C19.772 11.1258 19.7686 11.1258 19.7649 11.1256L17.439 11.0996C17.4288 11.0996 17.4189 11.0994 17.4088 11.0994C16.5427 11.0994 15.7242 11.5159 15.2142 12.2175C14.6983 12.9275 14.558 13.8476 14.8384 14.679L15.5819 16.8832C15.6604 17.1158 15.6421 17.3641 15.5307 17.5827C15.4193 17.8014 15.2291 17.9622 14.9951 18.0352L12.7745 18.7293C11.937 18.9911 11.2753 19.6458 11.004 20.4804C10.733 21.3148 10.8838 22.2333 11.4073 22.9375L12.7955 24.8038C12.9421 25.0007 13.0016 25.2427 12.9631 25.4852C12.9248 25.7273 12.7935 25.9391 12.5935 26.0809L10.6962 27.4273C9.98066 27.9351 9.55369 28.762 9.55369 29.6393C9.55369 30.5166 9.98066 31.3438 10.6962 31.8516L12.5935 33.1976C12.7933 33.3395 12.9248 33.5513 12.9631 33.7934C13.0016 34.0359 12.9421 34.2779 12.7956 34.4747L11.4071 36.3413C10.8836 37.0453 10.7328 37.9638 11.004 38.7982C11.2753 39.6327 11.937 40.2873 12.7747 40.5493L14.9949 41.2434C15.2291 41.3165 15.4193 41.4772 15.5307 41.6959C15.6421 41.9145 15.6604 42.1628 15.5819 42.3954L14.8384 44.5997C14.558 45.431 14.6985 46.3511 15.214 47.0607C15.7298 47.7707 16.5581 48.1865 17.439 48.1791L18.1243 48.1715L9.41498 72.0993C9.24427 72.5685 9.48623 73.0874 9.95534 73.2581C10.4243 73.4294 10.9435 73.1868 11.1142 72.7177L20.0393 48.1963C20.1787 48.2389 20.308 48.3113 20.4142 48.4176C20.5876 48.591 20.6816 48.8216 20.6789 49.067L20.6529 51.3932C20.6431 52.2706 21.0612 53.1023 21.7712 53.6181C22.481 54.1338 23.4013 54.2744 24.2323 53.9937L26.4366 53.2503C26.6693 53.1721 26.9176 53.19 27.1361 53.3014C27.3547 53.4128 27.5155 53.6031 27.5885 53.8373L28.2826 56.0575C28.5445 56.895 29.1989 57.5568 30.0337 57.8279C30.8681 58.0994 31.7866 57.9485 32.4908 57.4248L34.3555 56.0379L24.5491 82.9804L19.1815 76.4963C18.8143 76.0527 18.2338 75.8409 17.6666 75.945L9.31371 77.4753C9.30196 77.1173 9.07627 76.7852 8.71892 76.655C8.25 76.4843 7.73098 76.7261 7.56008 77.1954C7.36514 77.7307 7.47256 78.3338 7.84021 78.7689C8.21347 79.2109 8.77552 79.4123 9.345 79.308L17.869 77.7464L23.3952 84.422C23.7035 84.7944 24.1457 85 24.6153 85C24.7077 85 24.801 84.992 24.8947 84.9758C25.4646 84.8772 25.923 84.4938 26.1205 83.9504L36.0127 56.7716L36.9808 58.1355C37.4886 58.8511 38.3156 59.2781 39.1928 59.2781C40.0701 59.2781 40.8973 58.8511 41.4051 58.1355L42.3728 56.7714L52.265 83.9502C52.4627 84.4936 52.9209 84.877 53.4907 84.9756C53.5846 84.9919 53.6777 84.9998 53.7702 84.9998C54.2398 84.9998 54.682 84.794 54.9905 84.4217L60.5165 77.7462L69.0405 79.3078C69.6094 79.4118 70.1718 79.2107 70.5453 78.7687C70.9131 78.3338 71.0205 77.7307 70.8256 77.1954ZM41.2763 55.1921L39.9303 57.0894C39.7585 57.3313 39.4896 57.47 39.1928 57.47C38.8961 57.47 38.6272 57.3311 38.4555 57.0894L37.1092 55.1921C36.6833 54.5919 36.0485 54.198 35.3215 54.0829C35.1772 54.0599 35.0333 54.0489 34.8902 54.0489C34.3121 54.0489 33.7516 54.2335 33.278 54.5856L31.4117 55.9737C31.1736 56.151 30.8752 56.1996 30.5927 56.1083C30.3102 56.0164 30.0975 55.8014 30.0089 55.5178L29.3149 53.2976C29.0951 52.5952 28.6132 52.0243 27.9573 51.6901C27.3017 51.3561 26.5563 51.3017 25.8588 51.5368L23.6545 52.2802C23.3727 52.3748 23.0742 52.3294 22.834 52.1549C22.5939 51.9804 22.458 51.7102 22.4613 51.4133L22.4873 49.0871C22.4955 48.3512 22.2134 47.6592 21.6929 47.1389C21.1799 46.6258 20.4999 46.3443 19.7754 46.3443C19.7651 46.3443 19.7548 46.3444 19.7443 46.3444L17.4183 46.3705C17.4147 46.3707 17.4115 46.3707 17.4078 46.3707C17.1151 46.3707 16.849 46.235 16.6767 45.9978C16.5022 45.7576 16.4564 45.4587 16.5514 45.1773L17.2948 42.973C17.5303 42.2757 17.4757 41.5302 17.1415 40.8745C16.8073 40.2186 16.2364 39.7366 15.534 39.5169L13.3136 38.8228C13.0304 38.7344 12.8152 38.5216 12.7233 38.2391C12.6316 37.9568 12.6806 37.6582 12.8577 37.4202L14.2462 35.5536C14.6854 34.9629 14.8638 34.2374 14.7486 33.5102C14.6334 32.7833 14.2397 32.1487 13.6393 31.7224L11.7421 30.3764C11.5001 30.2046 11.3614 29.9357 11.3614 29.639C11.3614 29.3422 11.5003 29.0733 11.7421 28.9017L13.6393 27.5553C14.2395 27.1294 14.6334 26.4946 14.7486 25.7677C14.8638 25.0405 14.6853 24.315 14.246 23.7241L12.8579 21.8579C12.6806 21.6197 12.6316 21.3209 12.7233 21.0388C12.8152 20.7563 13.0302 20.5437 13.3134 20.4551L15.534 19.761C16.2364 19.5413 16.8073 19.0593 17.1415 18.4034C17.4757 17.7477 17.5301 17.0024 17.2948 16.3049L16.5514 14.1006C16.4566 13.8192 16.5024 13.5201 16.6767 13.2801C16.849 13.0427 17.1151 12.9073 17.4077 12.9073C17.4113 12.9073 17.4147 12.9073 17.4183 12.9074L19.7443 12.9335C19.7548 12.9335 19.7651 12.9337 19.7756 12.9337C20.4999 12.9337 21.1799 12.6521 21.6929 12.139C22.2134 11.6186 22.4955 10.9267 22.4873 10.1906L22.4613 7.86465C22.4579 7.5677 22.5937 7.29753 22.834 7.12301C23.0744 6.9485 23.3727 6.90329 23.6545 6.99769L25.8588 7.74113C26.5559 7.97659 27.3015 7.92179 27.9573 7.58778C28.6132 7.25358 29.0951 6.68266 29.3149 5.98027L30.0089 3.75989C30.0974 3.47669 30.3102 3.26149 30.5927 3.16962C30.8746 3.07793 31.1736 3.12694 31.4115 3.30399L33.2782 4.69249C33.8687 5.13176 34.594 5.31007 35.3215 5.19487C36.0485 5.07968 36.6831 4.68598 37.1093 4.08559L38.4553 2.18837C38.6271 1.9464 38.8961 1.8077 39.1928 1.8077C39.4896 1.8077 39.7585 1.94659 39.9301 2.18837L41.2765 4.08559C41.7024 4.6858 42.3371 5.07968 43.0641 5.19487C43.7915 5.31115 44.5168 5.13158 45.1076 4.69231L46.9739 3.30417C47.2123 3.12676 47.5116 3.07848 47.793 3.16962C48.0754 3.26149 48.2881 3.47651 48.3767 3.75971L49.0708 5.98027C49.2905 6.68266 49.7725 7.25358 50.4284 7.58778C51.0841 7.92179 51.8297 7.97659 52.5269 7.74113L54.7312 6.99769C55.0131 6.90347 55.3117 6.94868 55.5516 7.12301C55.7918 7.29753 55.9276 7.5677 55.9243 7.86465L55.8983 10.1906C55.8902 10.9267 56.1723 11.6186 56.6927 12.139C57.206 12.6521 57.8858 12.9337 58.6102 12.9337C58.6205 12.9337 58.6308 12.9335 58.6413 12.9335L60.9673 12.9074C61.2682 12.9018 61.5344 13.0398 61.7089 13.2801C61.8835 13.5201 61.9292 13.8192 61.8343 14.1006L61.0908 16.3049C60.8554 17.0022 60.91 17.7477 61.2442 18.4034C61.5784 19.0593 62.1493 19.5413 62.8517 19.761L65.0721 20.4551C65.3553 20.5435 65.5705 20.7563 65.6623 21.0388C65.754 21.3211 65.705 21.6197 65.528 21.8577L64.1395 23.7243C63.7002 24.315 63.5219 25.0405 63.6371 25.7677C63.7523 26.4946 64.146 27.1292 64.7464 27.5555L66.6436 28.9015C66.8856 29.0733 67.0243 29.3422 67.0243 29.639C67.0243 29.9357 66.8854 30.2046 66.6436 30.3762L64.7464 31.7226C64.1462 32.1485 63.7523 32.7833 63.6371 33.5102C63.5219 34.2374 63.7004 34.9629 64.1396 35.5538L65.5278 37.4201C65.705 37.6582 65.754 37.957 65.6623 38.2391C65.5705 38.5216 65.3555 38.7342 65.0723 38.8228L62.8517 39.5169C62.1493 39.7366 61.5784 40.2186 61.2442 40.8745C60.91 41.5302 60.8556 42.2755 61.0908 42.973L61.8343 45.1773C61.929 45.4587 61.8833 45.7576 61.7089 45.9978C61.5346 46.2379 61.2608 46.3822 60.9673 46.3705L58.6413 46.3444C57.9091 46.3414 57.2134 46.6184 56.6929 47.1389C56.1725 47.6593 55.8904 48.3512 55.8985 49.0871L55.9245 51.4133C55.928 51.7102 55.7922 51.9804 55.5518 52.1549C55.3117 52.3296 55.0131 52.375 54.7313 52.2802L52.527 51.5368C51.8299 51.3013 51.0843 51.3561 50.4286 51.6901C49.7726 52.0243 49.2907 52.5952 49.071 53.2976L48.3769 55.5178C48.2885 55.8012 48.0756 56.0164 47.7931 56.1083C47.5107 56.1998 47.2123 56.1511 46.9743 55.9739L45.1076 54.5854C44.5172 54.1461 43.7918 53.968 43.0643 54.083C42.3373 54.198 41.7026 54.5919 41.2763 55.1921Z" fill="#C6BFAD"/>
<path d="M39.1928 51.638C51.3426 51.638 61.1919 41.7887 61.1919 29.6389C61.1919 17.4892 51.3426 7.63983 39.1928 7.63983C27.0431 7.63983 17.1937 17.4892 17.1937 29.6389C17.1937 41.7887 27.0431 51.638 39.1928 51.638Z" fill="#F0EAE0"/>
<path d="M39.1928 48.876C28.5855 48.876 19.9557 40.2462 19.9557 29.6389C19.9557 19.0316 28.5855 10.402 39.1928 10.402C49.8001 10.402 58.4299 19.0318 58.4299 29.6391C58.4299 40.2464 49.8001 48.876 39.1928 48.876ZM39.1928 12.2105C29.5825 12.2105 21.7641 20.0288 21.7641 29.6391C21.7641 39.2494 29.5825 47.0676 39.1928 47.0676C48.8031 47.0676 56.6214 39.2493 56.6214 29.6389C56.6214 20.0286 48.8031 12.2105 39.1928 12.2105Z" fill="#C6BFAD"/>
<path d="M4.52101 47.2074C4.28971 47.2074 4.05805 47.1191 3.88173 46.9424L2.71259 45.7735L1.54344 46.9424C1.19062 47.2956 0.617712 47.2956 0.264889 46.9424C-0.0882962 46.5894 -0.0882962 46.0169 0.264889 45.6639L2.07331 43.8555C2.42613 43.5023 2.99904 43.5023 3.35187 43.8555L5.16029 45.6639C5.51347 46.0169 5.51347 46.5894 5.16029 46.9424C4.98397 47.1191 4.75249 47.2074 4.52101 47.2074Z" fill="#C6BFAD"/>
<path d="M77.4815 38.0495C77.2502 38.0495 77.0185 37.9613 76.8422 37.7846L75.673 36.6156L74.5039 37.7846C74.1511 38.1378 73.5782 38.1378 73.2253 37.7846C72.8722 37.4316 72.8722 36.8591 73.2253 36.506L75.0338 34.6976C75.3866 34.3444 75.9595 34.3444 76.3123 34.6976L78.1207 36.506C78.4739 36.8591 78.4739 37.4316 78.1207 37.7846C77.9442 37.9613 77.7128 38.0495 77.4815 38.0495Z" fill="#C6BFAD"/>
<path d="M72.6486 49.0158C72.4173 49.0158 72.1856 48.9276 72.0093 48.7509L70.8402 47.582L69.671 48.7509C69.3182 49.1041 68.7453 49.1041 68.3925 48.7509C68.0393 48.3979 68.0393 47.8254 68.3925 47.4724L70.2009 45.6639C70.5537 45.3108 71.1266 45.3108 71.4794 45.6639L73.2879 47.4724C73.641 47.8254 73.641 48.3979 73.2879 48.7509C73.1115 48.9276 72.8799 49.0158 72.6486 49.0158Z" fill="#C6BFAD"/>
<path d="M8.36718 57.2441C8.13588 57.2441 7.90422 57.1559 7.7279 56.9792C7.37472 56.6262 7.37472 56.0536 7.7279 55.7006L9.53632 53.8922C9.88915 53.539 10.4621 53.539 10.8149 53.8922C11.1681 54.2452 11.1681 54.8178 10.8149 55.1708L9.00646 56.9792C8.83013 57.1559 8.59848 57.2441 8.36718 57.2441Z" fill="#C6BFAD"/>
<path d="M6.01781 16.5611C5.78652 16.5611 5.55486 16.4729 5.37854 16.2962C5.02535 15.9432 5.02535 15.3707 5.37854 15.0176L7.18696 13.2092C7.53978 12.856 8.11269 12.856 8.46551 13.2092C8.8187 13.5622 8.8187 14.1348 8.46551 14.4878L6.65709 16.2962C6.48059 16.4729 6.24911 16.5611 6.01781 16.5611Z" fill="#C6BFAD"/>
<path d="M48.4158 26.7967C48.1751 32.8016 44.3853 37.8424 39.1928 39.6635C34.0003 37.8424 30.2105 32.8016 29.9698 26.7967C29.9698 26.7967 30.0243 22.9758 30.1434 21.6729C30.1627 21.4583 30.343 21.2948 30.5584 21.2948C31.9696 21.2922 37.126 21.1874 38.9396 19.799C39.015 19.7419 39.1039 19.7134 39.1928 19.7134C39.2817 19.7134 39.3706 19.7419 39.446 19.799C41.2596 21.1874 46.4161 21.2922 47.8272 21.2948C48.0426 21.2948 48.2229 21.4583 48.2422 21.6729C48.3613 22.9759 48.4158 26.7967 48.4158 26.7967Z" fill="#C6BFAD"/>
<path d="M48.4158 26.7967C48.1751 32.8016 44.3853 37.8424 39.1928 39.6635V19.7134C39.2817 19.7134 39.3706 19.7419 39.446 19.799C41.2596 21.1874 46.4161 21.2922 47.8272 21.2948C48.0427 21.2948 48.2229 21.4583 48.2422 21.6729C48.3613 22.9759 48.4158 26.7967 48.4158 26.7967Z" fill="#C6BFAD"/>
<path d="M39.1928 36.9582C37.4506 36.1768 35.9303 34.9322 34.7591 33.3204C33.3795 31.4218 32.5942 29.1551 32.486 26.7613C32.5006 25.769 32.5259 24.6739 32.5561 23.7566C33.3297 23.7175 34.2224 23.6506 35.1206 23.537C36.8123 23.323 38.152 22.996 39.1928 22.536C40.2337 22.9961 41.5734 23.3231 43.2652 23.537C44.1633 23.6506 45.056 23.7175 45.8296 23.7566C45.8597 24.6738 45.8851 25.769 45.8997 26.7613C45.7914 29.1552 45.0061 31.4219 43.6265 33.3204C42.4553 34.9322 40.935 36.1768 39.1928 36.9582Z" fill="white"/>
<path d="M39.1928 22.5359C40.2337 22.9959 41.5734 23.323 43.2652 23.5369C44.1633 23.6505 45.056 23.7173 45.8296 23.7565C45.8597 24.6737 45.8851 25.7689 45.8997 26.7612C45.7914 29.155 45.0061 31.4218 43.6265 33.3203C42.4553 34.9321 40.935 36.1766 39.1928 36.9581V22.5359Z" fill="#F0EAE0"/>
</svg>
