<svg width="85" height="68" viewBox="0 0 85 68" fill="none" xmlns="http://www.w3.org/2000/svg">
<path d="M1.04421 41.1633C0.776935 41.1633 0.509866 41.0614 0.305857 40.8574C-0.101952 40.4498 -0.101952 39.7887 0.305857 39.3811L2.39397 37.293C2.80178 36.8852 3.46267 36.8852 3.87048 37.293C4.27829 37.7006 4.27829 38.3617 3.87048 38.7693L1.78236 40.8574C1.57856 41.0614 1.31149 41.1633 1.04421 41.1633Z" fill="#C6BFAD"/>
<path d="M25.2456 4.17618C24.9784 4.17618 24.7113 4.07428 24.5073 3.87027C24.0995 3.46267 24.0995 2.80157 24.5073 2.39397L26.5954 0.305857C27.0032 -0.101952 27.6641 -0.101952 28.0719 0.305857C28.4797 0.713457 28.4797 1.37455 28.0719 1.78215L25.9838 3.87027C25.78 4.07428 25.5127 4.17618 25.2456 4.17618Z" fill="#C6BFAD"/>
<path d="M77.3679 6.45934C77.1006 6.45934 76.8336 6.35743 76.6295 6.15342L75.2798 4.80367L73.93 6.15342C73.5222 6.56123 72.8613 6.56123 72.4535 6.15342C72.0457 5.74582 72.0457 5.08473 72.4535 4.67713L74.5416 2.58901C74.9495 2.1812 75.6103 2.1812 76.0182 2.58901L78.1063 4.67713C78.5141 5.08473 78.5141 5.74582 78.1063 6.15342C77.9023 6.35722 77.6352 6.45934 77.3679 6.45934Z" fill="#C6BFAD"/>
<path d="M81.8679 19.245C81.6006 19.245 81.3335 19.1431 81.1295 18.9391C80.7217 18.5315 80.7217 17.8704 81.1295 17.4628L83.2176 15.3747C83.6254 14.9669 84.2863 14.9669 84.6941 15.3747C85.1019 15.7823 85.1019 16.4434 84.6941 16.851L82.606 18.9391C82.4022 19.1429 82.1352 19.245 81.8679 19.245Z" fill="#C6BFAD"/>
<path d="M74.7307 45.7426C74.6556 45.7426 74.5805 45.7363 74.4991 45.7301C73.4286 45.6049 72.6648 44.6345 72.79 43.564L74.618 27.9819C74.7245 27.093 74.449 26.229 73.8543 25.5592C73.2595 24.8893 72.4332 24.52 71.5379 24.52H62.4103C61.3335 24.52 60.4571 23.6435 60.4571 22.5667C60.4571 21.4899 61.3335 20.6135 62.4103 20.6135H71.5379C73.535 20.6135 75.4444 21.4712 76.7716 22.9611C78.0988 24.4511 78.7248 26.4482 78.4932 28.4327L76.6652 44.0147C76.5462 45.0101 75.7011 45.7426 74.7307 45.7426Z" fill="#C6BFAD"/>
<path fill-rule="evenodd" clip-rule="evenodd" d="M74.5899 44.8211C74.6685 44.8271 74.701 44.8293 74.7307 44.8293C75.2405 44.8293 75.6939 44.4409 75.7582 43.9075C75.7583 43.9071 75.7583 43.9067 75.7584 43.9064L77.5861 28.3268C77.7877 26.5997 77.2423 24.8626 76.0896 23.5686C74.9355 22.2729 73.2741 21.5268 71.5379 21.5268H62.4103C61.8379 21.5268 61.3704 21.9943 61.3704 22.5667C61.3704 23.1391 61.8379 23.6067 62.4103 23.6067H71.5379C72.6929 23.6067 73.7683 24.0868 74.5372 24.9528C75.3027 25.815 75.6625 26.9379 75.5249 28.0895C75.5249 28.0898 75.5249 28.0902 75.5248 28.0905L73.6971 43.6701C73.6971 43.6702 73.6971 43.6703 73.6971 43.6704C73.631 44.237 74.0307 44.7474 74.5899 44.8211ZM74.4991 45.7301C73.4286 45.6049 72.6648 44.6345 72.79 43.564L74.618 27.9819C74.7245 27.093 74.449 26.229 73.8543 25.5592C73.2595 24.8893 72.4332 24.52 71.5379 24.52H62.4103C61.3335 24.52 60.4571 23.6435 60.4571 22.5667C60.4571 21.4899 61.3335 20.6135 62.4103 20.6135H71.5379C73.535 20.6135 75.4444 21.4712 76.7716 22.9611C78.0988 24.4511 78.7248 26.4482 78.4932 28.4327L76.6652 44.0147C76.5462 45.0101 75.7011 45.7426 74.7307 45.7426C74.6609 45.7426 74.5911 45.7372 74.5163 45.7314L74.4991 45.7301Z" fill="#FFF8ED"/>
<path d="M8.90427 51.371H73.2892V57.9921L72.6043 61.4169L70.3211 63.9283L67.1247 65.2982H14.8405H12.1007L8.90427 63.9283L7.7627 62.1018V59.362L8.90427 51.371Z" fill="white"/>
<path d="M9.62297 41.0473C9.54785 41.0473 9.46647 41.0411 9.38508 41.0348C8.31456 40.9033 7.5508 39.933 7.68226 38.8624L9.14093 26.7737C9.56663 23.2616 12.5528 20.6072 16.0962 20.6072H23.1015C24.1783 20.6072 25.0548 21.4837 25.0548 22.5605C25.0548 23.6372 24.1783 24.5137 23.1015 24.5137H16.0962C14.5311 24.5137 13.2039 25.6844 13.0161 27.2432L11.5574 39.332C11.4385 40.3211 10.5996 41.0473 9.62297 41.0473Z" fill="#C6BFAD"/>
<path fill-rule="evenodd" clip-rule="evenodd" d="M7.68226 38.8624C7.5508 39.933 8.31456 40.9033 9.38508 41.0348C9.46647 41.0411 9.54785 41.0473 9.62297 41.0473C10.5996 41.0473 11.4385 40.3211 11.5574 39.332L13.0161 27.2432C13.2039 25.6844 14.5311 24.5137 16.0962 24.5137H23.1015C24.1783 24.5137 25.0548 23.6372 25.0548 22.5605C25.0548 21.4837 24.1783 20.6072 23.1015 20.6072H16.0962C12.5528 20.6072 9.56663 23.2616 9.14093 26.7737L7.68226 38.8624ZM12.1094 27.1338C12.1094 27.1338 12.1094 27.1339 12.1094 27.1338C12.3528 25.1146 14.0707 23.6004 16.0962 23.6004H23.1015C23.6739 23.6004 24.1415 23.1329 24.1415 22.5605C24.1415 21.9881 23.6739 21.5205 23.1015 21.5205H16.0962C13.0159 21.5205 10.4181 23.8287 10.0476 26.8831C10.0476 26.8831 10.0476 26.8831 10.0476 26.8831C10.0476 26.8832 10.0476 26.8835 10.0476 26.8836L8.58872 38.9738C8.51991 39.534 8.91441 40.0472 9.47874 40.126C9.55264 40.1316 9.59253 40.134 9.62297 40.134C10.1434 40.134 10.5877 39.7472 10.6507 39.2229L12.1094 27.1338Z" fill="#FFF8ED"/>
<path d="M72.4895 52.3285H26.313C25.2363 52.3285 24.3598 51.452 24.3598 50.3753C24.3598 49.2985 25.2363 48.422 26.313 48.422H72.4895C73.5662 48.422 74.4427 49.2985 74.4427 50.3753C74.4427 51.452 73.5662 52.3285 72.4895 52.3285Z" fill="#C6BFAD"/>
<path fill-rule="evenodd" clip-rule="evenodd" d="M26.313 51.4152H72.4895C73.0619 51.4152 73.5294 50.9476 73.5294 50.3753C73.5294 49.8028 73.0619 49.3353 72.4895 49.3353H26.313C25.7406 49.3353 25.2731 49.8028 25.2731 50.3753C25.2731 50.9477 25.7406 51.4152 26.313 51.4152ZM26.313 52.3285H72.4895C73.5662 52.3285 74.4427 51.452 74.4427 50.3753C74.4427 49.2985 73.5662 48.422 72.4895 48.422H26.313C25.2363 48.422 24.3598 49.2985 24.3598 50.3753C24.3598 51.452 25.2363 52.3285 26.313 52.3285Z" fill="#FFF8ED"/>
<path d="M66.1916 67.0215H13.1914C10.7999 67.0215 8.60252 66.1013 7.15012 64.4924C5.90431 63.1088 5.32209 61.3371 5.51616 59.5154L7.81372 37.6604C8.2269 33.7477 12.1709 30.5612 16.6158 30.5612H69.616C72.0075 30.5612 74.2048 31.4815 75.6572 33.0904C76.9031 34.4739 77.4853 36.2456 77.2912 38.0674L74.9936 59.9223C74.5805 63.835 70.6302 67.0215 66.1916 67.0215ZM16.6095 34.4677C14.1492 34.4677 11.8955 36.1204 11.6889 38.0736L9.39133 59.9286C9.29742 60.8363 9.69182 61.4937 10.0487 61.8881C10.7561 62.6769 11.9017 63.1276 13.1851 63.1276H66.1853C68.6456 63.1276 70.8994 61.4749 71.106 59.5216L73.4035 37.6667C73.4974 36.759 73.103 36.1016 72.7462 35.7072C72.0388 34.9184 70.8931 34.4677 69.6097 34.4677H16.6095Z" fill="#C6BFAD"/>
<path fill-rule="evenodd" clip-rule="evenodd" d="M5.51616 59.5154C5.32209 61.3371 5.90431 63.1088 7.15012 64.4924C8.60252 66.1013 10.7999 67.0215 13.1914 67.0215H66.1916C70.6302 67.0215 74.5805 63.835 74.9936 59.9223L77.2912 38.0674C77.4853 36.2456 76.9031 34.4739 75.6572 33.0904C74.2048 31.4815 72.0075 30.5612 69.616 30.5612H16.6158C12.1709 30.5612 8.2269 33.7477 7.81372 37.6604L5.51616 59.5154ZM74.9789 33.7018C73.7185 32.306 71.7784 31.4745 69.616 31.4745H16.6158C12.5476 31.4745 9.07736 34.3931 8.72197 37.7559C8.72196 37.7561 8.72199 37.7558 8.72197 37.7559L6.42429 59.6121C6.25825 61.1708 6.75289 62.6861 7.82827 63.8807C9.0886 65.2766 11.0288 66.1083 13.1914 66.1083H66.1916C70.2541 66.1083 73.7303 63.1891 74.0854 59.8264L76.3831 37.9706C76.5491 36.4119 76.0544 34.8965 74.9789 33.7018ZM10.7807 37.9776C10.9181 36.6783 11.7211 35.5662 12.7642 34.8016C13.8141 34.032 15.181 33.5544 16.6095 33.5544H69.6097C71.0903 33.5544 72.5066 34.0735 73.4244 35.0957C73.8915 35.6124 74.4408 36.5152 74.3119 37.7607L74.3118 37.7622L72.0142 59.6171L72.0142 59.6177C71.8767 60.917 71.0738 62.0291 70.0307 62.7937C68.9807 63.5633 67.6139 64.0409 66.1853 64.0409H13.1851C11.7043 64.0409 10.2877 63.5216 9.36989 62.4991C8.9029 61.9823 8.35412 61.0796 8.48292 59.8346L8.48307 59.8331L10.7807 37.9776ZM72.7462 35.7072C72.0388 34.9184 70.8931 34.4677 69.6097 34.4677H16.6095C14.1492 34.4677 11.8955 36.1204 11.6889 38.0736L9.39133 59.9286C9.29742 60.8363 9.69182 61.4936 10.0487 61.8881C10.7561 62.6769 11.9017 63.1276 13.1851 63.1276H66.1853C68.6456 63.1276 70.8994 61.4749 71.106 59.5216L73.4035 37.6667C73.4974 36.759 73.103 36.1016 72.7462 35.7072Z" fill="#FFF8ED"/>
<path d="M56.3566 17.9341C56.3566 20.4883 55.6491 22.8672 54.4096 24.9018C53.8587 25.8096 53.2013 26.6547 52.4564 27.406H33.3372C32.5922 26.6547 31.9349 25.8096 31.384 24.9018C30.1444 22.8672 29.437 20.4883 29.437 17.9341C29.437 10.503 35.4657 4.47428 42.8968 4.47428C50.3278 4.47428 56.3566 10.503 56.3566 17.9341Z" fill="#F0EAE0"/>
<path fill-rule="evenodd" clip-rule="evenodd" d="M53.6289 24.428L53.6297 24.4267C54.7841 22.5318 55.4433 20.3167 55.4433 17.9341C55.4433 11.0074 49.8235 5.38754 42.8968 5.38754C35.9701 5.38754 30.3503 11.0074 30.3503 17.9341C30.3503 20.3167 31.0095 22.5318 32.1639 24.4267L32.1647 24.428C32.6139 25.1682 33.1384 25.863 33.7258 26.4927H52.0677C52.6551 25.863 53.1797 25.1682 53.6289 24.428ZM52.4564 27.406H33.3372C32.5922 26.6547 31.9349 25.8096 31.384 24.9018C30.1444 22.8672 29.437 20.4883 29.437 17.9341C29.437 10.503 35.4657 4.47428 42.8968 4.47428C50.3278 4.47428 56.3566 10.503 56.3566 17.9341C56.3566 20.4883 55.6491 22.8672 54.4096 24.9018C53.8587 25.8096 53.2013 26.6547 52.4564 27.406Z" fill="#FFF8ED"/>
<path d="M42.8968 2.28315C34.2637 2.28315 27.2458 9.30102 27.2458 17.9341C27.2458 20.4382 27.8343 22.8046 28.8861 24.9018C29.3243 25.7908 29.8502 26.6297 30.4449 27.406H36.8117C35.7599 26.7361 34.8271 25.8847 34.0509 24.9018C32.5359 22.9862 31.6281 20.5634 31.6281 17.9341C31.6281 11.7238 36.6865 6.66541 42.8968 6.66541C49.107 6.66541 54.1654 11.7238 54.1654 17.9341C54.1654 20.5634 53.2576 22.9862 51.7426 24.9018C50.9663 25.8847 50.0336 26.7361 48.9818 27.406H55.3486C55.9433 26.6297 56.4692 25.7908 56.9074 24.9018C57.9592 22.8046 58.5477 20.4382 58.5477 17.9341C58.5477 9.30102 51.5298 2.28315 42.8968 2.28315Z" fill="#C6BFAD"/>
<path fill-rule="evenodd" clip-rule="evenodd" d="M29.7052 24.498C30.0499 25.1972 30.453 25.8646 30.9043 26.4927H34.2399C33.9195 26.1684 33.6171 25.8261 33.3342 25.4679C31.6969 23.3974 30.7148 20.7768 30.7148 17.9341C30.7148 11.2194 36.1821 5.75214 42.8968 5.75214C49.6114 5.75214 55.0787 11.2194 55.0787 17.9341C55.0787 20.7768 54.0966 23.3974 52.4593 25.4679M50.2143 26.4927C50.773 26.015 51.285 25.4812 51.7426 24.9018C53.2576 22.9862 54.1654 20.5634 54.1654 17.9341C54.1654 11.7238 49.107 6.66541 42.8968 6.66541C36.6865 6.66541 31.6281 11.7238 31.6281 17.9341C31.6281 20.5634 32.5359 22.9862 34.0509 24.9018C34.5085 25.4812 35.0205 26.015 35.5792 26.4927C35.9682 26.8254 36.3799 27.131 36.8117 27.406H30.4449C29.8502 26.6297 29.3243 25.7908 28.8861 24.9018C27.8343 22.8046 27.2458 20.4382 27.2458 17.9341C27.2458 9.30102 34.2637 2.28315 42.8968 2.28315C51.5298 2.28315 58.5477 9.30102 58.5477 17.9341C58.5477 20.4382 57.9592 22.8046 56.9074 24.9018C56.4692 25.7908 55.9433 26.6297 55.3486 27.406H48.9818C49.4136 27.131 49.8253 26.8254 50.2143 26.4927ZM54.8892 26.4927C55.3405 25.8646 55.7436 25.1972 56.0883 24.498L56.0911 24.4924C57.0802 22.5201 57.6344 20.2936 57.6344 17.9341C57.6344 9.8054 51.0254 3.19642 42.8968 3.19642C34.7681 3.19642 28.1591 9.8054 28.1591 17.9341C28.1591 20.2936 28.7133 22.5201 29.7024 24.4924L29.7052 24.498" fill="#FFF8ED"/>
<path d="M56.9075 24.9018C56.4693 25.7908 55.9434 26.6297 55.3487 27.406H30.4449C29.8502 26.6297 29.3243 25.7908 28.8861 24.9018H56.9075Z" fill="#C6BFAD"/>
<path fill-rule="evenodd" clip-rule="evenodd" d="M56.9075 24.9018H28.8861C28.9619 25.0556 29.0403 25.2078 29.1212 25.3585C29.5083 26.0791 29.953 26.7639 30.4449 27.406H55.3487C55.8405 26.7639 56.2853 26.0791 56.6724 25.3585C56.7533 25.2078 56.8317 25.0556 56.9075 24.9018ZM56.1516 25.3585H29.6419C29.9518 25.9123 30.297 26.4438 30.6724 26.9494H55.1212C55.4966 26.4438 55.8418 25.9123 56.1516 25.3585Z" fill="#FFF8ED"/>
<path d="M34.5059 39.4986C34.5059 39.9837 34.3722 40.3851 34.1046 40.7026C33.8406 41.0165 33.4357 41.2537 32.8899 41.4143L32.8792 41.4571C33.3109 41.5819 33.6373 41.7621 33.8585 41.9976C34.0832 42.233 34.1956 42.5648 34.1956 42.9929C34.1956 43.8312 33.8513 44.4858 33.1628 44.9567C32.4779 45.4276 31.5075 45.6631 30.2518 45.6631H26.8003L28.6411 37.6952H31.5468C32.5064 37.6952 33.2395 37.854 33.7461 38.1715C34.2527 38.4854 34.5059 38.9278 34.5059 39.4986ZM32.3334 39.825C32.3334 39.5895 32.2406 39.4201 32.0551 39.3166C31.8696 39.2096 31.6128 39.1561 31.2846 39.1561H30.3588L29.9682 40.8417H30.9046C31.3541 40.8417 31.7037 40.7561 31.9534 40.5849C32.2067 40.41 32.3334 40.1568 32.3334 39.825ZM32.1033 43.0464C32.1033 42.7539 31.9927 42.5434 31.7715 42.4149C31.5503 42.2829 31.2025 42.217 30.728 42.217H29.6525L29.1923 44.2022H30.2304C30.8297 44.2022 31.2917 44.1041 31.6163 43.9079C31.941 43.7117 32.1033 43.4245 32.1033 43.0464Z" fill="#C6BFAD"/>
<path d="M43.9668 40.6598C43.9668 41.3126 43.8562 41.9547 43.635 42.5862C43.4138 43.2176 43.0927 43.7688 42.6718 44.2397C42.2116 44.7534 41.6747 45.1476 41.0611 45.4223C40.4475 45.6934 39.7411 45.829 38.942 45.829C37.854 45.829 37.0014 45.5489 36.3842 44.9888C35.7706 44.4252 35.4638 43.6511 35.4638 42.6664C35.4638 41.9744 35.5815 41.3162 35.817 40.6919C36.0524 40.0676 36.3895 39.5182 36.8283 39.0437C37.2564 38.5835 37.7862 38.2161 38.4176 37.9414C39.0491 37.6667 39.7376 37.5294 40.4832 37.5294C41.5748 37.5294 42.4274 37.8112 43.041 38.3748C43.6582 38.9385 43.9668 39.7001 43.9668 40.6598ZM41.029 43.3782C41.2716 43.0606 41.4606 42.6932 41.5962 42.2758C41.7353 41.8549 41.8049 41.3715 41.8049 40.8257C41.8049 40.2549 41.6676 39.8089 41.3929 39.4879C41.1217 39.1632 40.7329 39.0009 40.2263 39.0009C39.8945 39.0009 39.577 39.0776 39.2738 39.231C38.9741 39.3808 38.6977 39.6109 38.4444 39.9213C38.1982 40.2174 38.0002 40.5866 37.8504 41.029C37.7006 41.4678 37.6257 41.9619 37.6257 42.5113C37.6257 43.1213 37.7648 43.5815 38.043 43.8919C38.3249 44.2022 38.7137 44.3574 39.2096 44.3574C39.5521 44.3574 39.8821 44.2736 40.1996 44.1059C40.5171 43.9347 40.7935 43.6921 41.029 43.3782Z" fill="#C6BFAD"/>
<path d="M51.7259 45.6631H49.9761L47.6376 40.1461L46.3641 45.6631H44.4698L46.3106 37.6952H48.6116L50.6129 42.3079L51.6724 37.6952H53.5667L51.7259 45.6631Z" fill="#C6BFAD"/>
<path d="M62.5834 37.6952L61.4275 42.6718C61.1671 43.7741 60.7265 44.575 60.1058 45.0745C59.4851 45.5703 58.5861 45.8183 57.4088 45.8183C56.36 45.8183 55.5663 45.631 55.0276 45.2564C54.4889 44.8783 54.2195 44.3075 54.2195 43.544C54.2195 43.3871 54.232 43.2283 54.257 43.0678C54.282 42.9072 54.3087 42.761 54.3373 42.629L55.4824 37.6952H57.5587L56.4135 42.6343C56.3885 42.7342 56.3671 42.8448 56.3493 42.9661C56.335 43.0838 56.3279 43.1819 56.3279 43.2604C56.3279 43.5958 56.4278 43.8508 56.6276 44.0256C56.8309 44.1969 57.1662 44.2825 57.6336 44.2825C58.0866 44.2825 58.4523 44.1576 58.7306 43.9079C59.0124 43.6582 59.2139 43.2693 59.3352 42.7414L60.5071 37.6952H62.5834Z" fill="#C6BFAD"/>
<path d="M65.58 45.8076C64.8986 45.8076 64.2904 45.7487 63.7553 45.631C63.2237 45.5133 62.7635 45.367 62.3747 45.1922L62.7867 43.2818H63.0115C63.3789 43.6172 63.8106 43.8776 64.3065 44.0631C64.8023 44.245 65.3357 44.336 65.9064 44.336C66.4915 44.336 66.9214 44.2575 67.1961 44.1006C67.4708 43.94 67.6081 43.7117 67.6081 43.4156C67.6081 43.305 67.5849 43.2105 67.5385 43.132C67.4957 43.0499 67.4101 42.9697 67.2817 42.8912C67.1533 42.8127 66.9767 42.736 66.7519 42.6611C66.5307 42.5826 66.2436 42.4934 65.8904 42.3935C65.5015 42.2865 65.1519 42.1706 64.8416 42.0457C64.5348 41.9209 64.2726 41.7728 64.0549 41.6016C63.8373 41.4268 63.6715 41.2252 63.5573 40.9969C63.4467 40.7686 63.3914 40.4957 63.3914 40.1782C63.3914 39.3791 63.7428 38.7423 64.4456 38.2678C65.1519 37.7898 66.1169 37.5508 67.3406 37.5508C67.9292 37.5508 68.4839 37.5989 69.0048 37.6952C69.5292 37.7916 69.9733 37.9218 70.3372 38.0859L69.9466 39.9213H69.7272C69.4489 39.6645 69.0815 39.4504 68.6248 39.2792C68.1718 39.1044 67.6759 39.017 67.1372 39.017C66.6092 39.017 66.2008 39.0937 65.9118 39.2471C65.6228 39.4005 65.4784 39.6127 65.4784 39.8839C65.4784 40.0087 65.4998 40.1122 65.5426 40.1942C65.5854 40.2763 65.6728 40.3565 65.8048 40.435C65.9189 40.5064 66.0991 40.5849 66.3452 40.6705C66.5914 40.7525 66.8804 40.8381 67.2121 40.9273C68.104 41.1663 68.7408 41.4464 69.1225 41.7675C69.5042 42.0885 69.6951 42.5238 69.6951 43.0731C69.6951 43.5333 69.5916 43.9382 69.3847 44.2878C69.1778 44.6375 68.8924 44.9211 68.5285 45.1387C68.1468 45.3706 67.7133 45.54 67.2282 45.647C66.743 45.7541 66.1936 45.8076 65.58 45.8076Z" fill="#C6BFAD"/>
</svg>
